<svg width="32" height="32" viewBox="0 0 32 32" fill="none">
  <rect width="32" height="32" rx="8" fill="#4C75A3"/>
  <path d="M23.47 19.16c.41.44.84.87 1.24 1.32.2.23.42.44.62.67.27.32.2.63-.2.7h-2.07c-.44 0-.82-.16-1.13-.52-.47-.53-.93-1.08-1.38-1.62-.19-.23-.39-.45-.6-.69-.27-.3-.55-.39-.86-.03-.23.28-.44.56-.62.87-.29.5-.18.71.33.74.31.02.62.01.93.01.17 0 .34 0 .51.02.39.03.61.22.65.6.02.19.05.39.04.58-.02.43-.23.59-.67.62-.83.06-1.67.03-2.5.03-1.65-.01-3.3-.02-4.95-.03-.44 0-.65-.18-.67-.6-.01-.21.01-.41.03-.62.03-.37.25-.54.65-.57.27-.02.54-.01.81-.01.2 0 .41.01.61.01.54-.01.64-.12.32-.66-.24-.4-.52-.78-.78-1.16-1.04-1.49-2.1-2.96-3.11-4.45-.15-.22-.31-.45-.44-.68-.2-.34-.11-.52.27-.53.26-.01.53-.03.8-.01.36.01.61.16.81.47.59.9 1.18 1.81 1.75 2.73.16.26.33.51.51.78.07.1.15.19.23.27.07.07.15.14.25.08.09-.06.09-.17.1-.27.01-.29.02-.59.01-.88-.01-.25-.1-.46-.27-.65-.33-.36-.66-.71-.99-1.07-.13-.14-.13-.26.01-.39.16-.16.32-.31.48-.48.19-.2.38-.18.57.01.2.2.41.39.6.6 1.05 1.14 2.11 2.28 3.17 3.41.23.24.44.27.7 0 .44-.48.9-.95 1.32-1.45.27-.32.23-.47-.12-.6-.18-.06-.36-.12-.53-.19-.37-.14-.45-.32-.24-.66.34-.54.69-1.07 1.03-1.6.22-.33.4-.35.67-.06.11.12.22.25.32.38.73.87 1.44 1.75 2.15 2.63.17.2.35.41.53.6.25.27.31.53.06.83-.37.45-.76.89-1.13 1.35-.22.26-.22.46.02.7z" fill="white"/>
</svg>